<?xml version="1.0" encoding="utf-8"?>
<!-- Generator: Adobe Illustrator 27.5.0, SVG Export Plug-In . SVG Version: 6.00 Build 0)  -->
<svg version="1.1" id="Layer_1" xmlns:xodm="http://www.corel.com/coreldraw/odm/2003"
	 xmlns="http://www.w3.org/2000/svg" xmlns:xlink="http://www.w3.org/1999/xlink" x="0px" y="0px" viewBox="0 0 4000 4000"
	 style="enable-background:new 0 0 4000 4000;" xml:space="preserve">
<g id="Layer_x5F_1">
	<g id="_2353918386832">
		<rect style="fill-rule:evenodd;clip-rule:evenodd;fill:#FFFFFF;" width="4000" height="4000"/>
		<path style="fill-rule:evenodd;clip-rule:evenodd;fill:#B06FEF;" d="M1519.13,1077.25h961.75
			c244.044,0,441.88,197.836,441.88,441.88v961.75c0,244.044-197.836,441.88-441.88,441.88h-961.75
			c-244.044,0-441.88-197.836-441.88-441.88v-961.75C1077.25,1275.086,1275.086,1077.25,1519.13,1077.25z"/>
		<path style="fill:#FFFFFF;" d="M1659.65,1654.83h-10.29c-73.03,0-132.92,59.89-132.92,132.92v424.5
			c0,73.03,59.89,132.92,132.92,132.92h701.28c73.03,0,132.92-59.89,132.92-132.92v-424.5c0-73.03-59.89-132.92-132.92-132.92
			h-10.29c10.07,20.32,15.15,43.07,15.15,65.48c0,37.94-14.01,76.95-41.77,106.44l-176.5,178.59c-76.26,76.72-198.19,76.72-274.46,0
			l-176.5-178.59c-27.76-29.49-41.77-68.5-41.77-106.44C1644.5,1697.89,1649.58,1675.15,1659.65,1654.83L1659.65,1654.83z
			 M1857.2,1654.83c-20.49,0-37.11-16.61-37.11-37.11c0-20.49,16.62-37.1,37.11-37.1h285.6c20.49,0,37.11,16.61,37.11,37.1
			c0,20.5-16.62,37.11-37.11,37.11H1857.2z M1649.36,1580.62h110.07c14.98,0,27.21,12.22,27.21,27.21v22.84
			c0,12.75-8.5,23.51-20.91,26.46c-57.92,13.79-57.27,85.99-25.53,118.89l175.33,177.43c46.64,46.92,122.3,46.92,168.94,0
			l175.34-177.43c31.73-32.89,32.38-105.09-25.54-118.89c-12.41-2.95-20.91-13.71-20.91-26.46v-22.84
			c0-14.99,12.23-27.21,27.21-27.21h110.07c114,0,207.13,93.13,207.13,207.13v424.5c0,114-93.13,207.14-207.13,207.14h-701.28
			c-114,0-207.13-93.14-207.13-207.14v-424.5C1442.23,1673.75,1535.36,1580.62,1649.36,1580.62z"/>
	</g>
</g>
</svg>
