<?xml version="1.0" encoding="utf-8"?>
<!-- Generator: Adobe Illustrator 27.5.0, SVG Export Plug-In . SVG Version: 6.00 Build 0)  -->
<svg version="1.1" id="Layer_1" xmlns:xodm="http://www.corel.com/coreldraw/odm/2003"
	 xmlns="http://www.w3.org/2000/svg" xmlns:xlink="http://www.w3.org/1999/xlink" x="0px" y="0px" viewBox="0 0 4000 4000"
	 style="enable-background:new 0 0 4000 4000;" xml:space="preserve">
<g id="Layer_x5F_1">
	<g id="_1709308677712">
		<rect style="fill-rule:evenodd;clip-rule:evenodd;fill:#FFFFFF;" width="4000" height="4000"/>
		
			<linearGradient id="SVGID_1_" gradientUnits="userSpaceOnUse" x1="1388.0313" y1="1383.8823" x2="3222.3364" y2="3236.6177" gradientTransform="matrix(1 0 0 -1 0 4002)">
			<stop  offset="0" style="stop-color:#FF0066"/>
			<stop  offset="1" style="stop-color:#FFCC00"/>
		</linearGradient>
		<path style="fill:url(#SVGID_1_);" d="M1514.12,1507.23h-14.7c-104.25,0-189.75,85.5-189.75,189.76v606.02
			c0,104.26,85.5,189.76,189.75,189.76h1001.16c104.26,0,189.75-85.5,189.75-189.76v-606.02c0-104.26-85.49-189.76-189.75-189.76
			h-14.7c14.38,29.01,21.64,61.48,21.64,93.48c0,54.17-20,109.86-59.64,151.96l-251.96,254.96
			c-108.88,109.52-282.95,109.52-391.83,0l-251.97-254.96c-39.64-42.1-59.64-97.79-59.64-151.95
			C1492.48,1568.71,1499.74,1536.24,1514.12,1507.23L1514.12,1507.23z M1796.14,1507.23c-29.26,0-52.98-23.72-52.98-52.97
			c0-29.26,23.72-52.98,52.98-52.98h407.72c29.26,0,52.98,23.72,52.98,52.98c0,29.25-23.72,52.97-52.98,52.97H1796.14
			L1796.14,1507.23z M1499.42,1401.28h157.14c21.39,0,38.84,17.45,38.84,38.85v32.61c0,18.21-12.13,33.56-29.85,37.78
			c-82.68,19.69-81.75,122.76-36.45,169.72l250.31,253.31c66.59,66.98,174.59,66.98,241.18,0l250.32-253.3
			c45.29-46.96,46.22-150.04-36.46-169.73c-17.71-4.22-29.85-19.58-29.85-37.78v-32.61c0-21.4,17.45-38.85,38.84-38.85h157.14
			c162.74,0,295.7,132.96,295.7,295.71v606.02c0,162.75-132.96,295.71-295.7,295.71H1499.42c-162.74,0-295.7-132.96-295.7-295.71
			v-606.02C1203.72,1534.24,1336.68,1401.28,1499.42,1401.28L1499.42,1401.28z"/>
	</g>
</g>
</svg>
